<svg xmlns="http://www.w3.org/2000/svg" xmlns:xlink="http://www.w3.org/1999/xlink" width="839.999" height="394" viewBox="0 0 839.999 394">
  <defs>
    <style>
      .cls-1 {
        fill: #fff;
        stroke-miterlimit: 10;
      }

      .cls-1, .cls-2, .cls-3, .cls-6, .cls-8 {
        stroke: #c2c2c2;
      }

      .cls-2 {
        fill: #dd8b14;
      }

      .cls-3 {
        fill: url(#linear-gradient);
      }

      .cls-4 {
        fill: rgba(0,0,0,0);
        opacity: 0.4;
      }

      .cls-5 {
        fill: url(#linear-gradient-2);
      }

      .cls-6 {
        fill: #15bc85;
      }

      .cls-7 {
        fill: url(#linear-gradient-4);
      }

      .cls-8 {
        fill: #4a37a5;
      }

      .cls-9 {
        fill: url(#linear-gradient-6);
      }
    </style>
    <linearGradient id="linear-gradient" y1="0.5" x2="1" y2="0.5" gradientUnits="objectBoundingBox">
      <stop offset="0" stop-color="#fff"/>
      <stop offset="1" stop-color="#f2f2f2"/>
    </linearGradient>
    <linearGradient id="linear-gradient-2" y1="0.5" x2="1" y2="0.5" gradientUnits="objectBoundingBox">
      <stop offset="0" stop-color="#f8ae0d"/>
      <stop offset="1" stop-color="#fa6041"/>
    </linearGradient>
    <linearGradient id="linear-gradient-4" y1="0.5" x2="1" y2="0.5" gradientUnits="objectBoundingBox">
      <stop offset="0" stop-color="#7fdab1"/>
      <stop offset="1" stop-color="#22b573"/>
    </linearGradient>
    <linearGradient id="linear-gradient-6" y1="0.5" x2="1" y2="0.5" gradientUnits="objectBoundingBox">
      <stop offset="0" stop-color="#7362cc"/>
      <stop offset="1" stop-color="#4c39a4"/>
    </linearGradient>
  </defs>
  <g id="Layer_2" transform="translate(-103.32 -177.72)">
    <g id="Group_118" data-name="Group 118" transform="translate(103.32 177.72)">
      <path id="Path_73" data-name="Path 73" class="cls-1" d="M243.45,209.27c.035.123.088.263.14.4-.07.193-.14.368-.21.561" transform="translate(2.277 -153.933)"/>
      <path id="Path_74" data-name="Path 74" class="cls-2" d="M109.5,231l32.448,35.079V231.8Z" transform="translate(-98.661 -137.242)"/>
      <path id="Path_75" data-name="Path 75" class="cls-3" d="M315.313,446.794H193.018c-40.326,0-73.018-26.874-73.018-60.023V229H315.313Z" transform="translate(-90.744 -137.976)"/>
      <g id="Group_117" data-name="Group 117">
        <rect id="Rectangle_67" data-name="Rectangle 67" class="cls-4" width="267.722" height="115.339"/>
        <g id="Group_116" data-name="Group 116" transform="translate(10.839 12.769)">
          <path id="Path_76" data-name="Path 76" class="cls-5" d="M344.528,222.71c0,1.333-.035,2.666-.14,3.981l-.07.965c-1.3,16.347-9.05,30.641-20.416,39.779H197.565c-46.6-.684-88.065-1.754-88.065-1.754L123.532,185H331.058A58.226,58.226,0,0,1,344.528,222.71Z" transform="translate(-109.5 -185)"/>
        </g>
      </g>
    </g>
    <g id="Group_121" data-name="Group 121" transform="translate(386.826 177.72)">
      <path id="Path_78" data-name="Path 78" class="cls-6" d="M264.5,231l32.448,35.079V231.8Z" transform="translate(-253.731 -139.262)"/>
      <path id="Path_79" data-name="Path 79" class="cls-3" d="M469.568,467.926H347.74c-40.172,0-72.74-29.481-72.74-65.847V229H469.568Z" transform="translate(-245.814 -145.909)"/>
      <g id="Group_120" data-name="Group 120">
        <rect id="Rectangle_68" data-name="Rectangle 68" class="cls-4" width="267.722" height="115.339"/>
        <g id="Group_119" data-name="Group 119" transform="translate(10.769 12.769)">
          <path id="Path_80" data-name="Path 80" class="cls-7" d="M499.528,222.71c0,1.333-.035,2.666-.14,3.981l-.07.965c-1.3,16.347-9.05,30.641-20.416,39.779H352.565c-46.6-.684-88.065-1.754-88.065-1.754L278.532,185H486.058A58.226,58.226,0,0,1,499.528,222.71Z" transform="translate(-264.5 -185)"/>
        </g>
      </g>
    </g>
    <g id="Group_124" data-name="Group 124" transform="translate(675.598 177.72)">
      <path id="Path_81" data-name="Path 81" class="cls-8" d="M422.5,231l32.448,35.079V231.8Z" transform="translate(-411.59 -137.242)"/>
      <path id="Path_82" data-name="Path 82" class="cls-3" d="M629.047,531.476H506.293c-40.478,0-73.293-37.323-73.293-83.361V229H629.047Z" transform="translate(-403.674 -137.976)"/>
      <g id="Group_123" data-name="Group 123">
        <rect id="Rectangle_69" data-name="Rectangle 69" class="cls-4" width="267.722" height="115.339"/>
        <g id="Group_122" data-name="Group 122" transform="translate(10.91 12.769)">
          <path id="Path_83" data-name="Path 83" class="cls-9" d="M657.528,222.71c0,1.333-.035,2.666-.14,3.981l-.07.965c-1.3,16.347-9.05,30.641-20.416,39.779H510.565c-46.6-.684-88.065-1.754-88.065-1.754L436.531,185H644.058A58.226,58.226,0,0,1,657.528,222.71Z" transform="translate(-422.5 -185)"/>
        </g>
      </g>
    </g>
  </g>
</svg>
