<svg id="XMLID_1299_" xmlns="http://www.w3.org/2000/svg" width="71.597" height="71.597" viewBox="0 0 71.597 71.597">
  <g id="XMLID_346_">
    <path id="XMLID_347_" d="M79.532,328a1.533,1.533,0,1,0,1.083.449A1.544,1.544,0,0,0,79.532,328Z" transform="translate(-66.048 -282.312)" fill="#0a0284"/>
    <path id="XMLID_348_" d="M439.532,108a1.533,1.533,0,1,0,1.083.449A1.544,1.544,0,0,0,439.532,108Z" transform="translate(-377.742 -92.956)" fill="#0a0284"/>
    <path id="XMLID_349_" d="M221.615,302.616a1.531,1.531,0,1,0-1.083.449A1.544,1.544,0,0,0,221.615,302.616Z" transform="translate(-188.495 -258.212)" fill="#0a0284"/>
    <path id="XMLID_1067_" d="M63.172,58.554v-.241a2.287,2.287,0,0,1,2.284-2.284h1.061a5.081,5.081,0,0,0,0-10.162H63.492a5.071,5.071,0,0,0,.553-2.307V22.094a1.4,1.4,0,1,0-2.8,0V38.036H2.8V5.1A2.31,2.31,0,0,1,5.1,2.8H58.942A2.31,2.31,0,0,1,61.249,5.1v5.8a1.4,1.4,0,1,0,2.8,0V5.1a5.11,5.11,0,0,0-5.1-5.1H5.1A5.11,5.11,0,0,0,0,5.1V43.56a5.11,5.11,0,0,0,5.1,5.1H6.712a1.4,1.4,0,0,0,0-2.8H5.1A2.31,2.31,0,0,1,2.8,43.56V40.833H61.249V43.56a2.31,2.31,0,0,1-2.307,2.307H17.9a1.4,1.4,0,0,0,0,2.8h5.454v6.992h-.734a4.865,4.865,0,0,0-4.859,4.859v2.133a1.4,1.4,0,0,0,1.4,1.4h25.73a1.4,1.4,0,0,0,1.4-1.4V60.515a4.865,4.865,0,0,0-4.859-4.859h-.734V48.664H66.516a2.284,2.284,0,0,1,0,4.568H65.456a5.087,5.087,0,0,0-5.081,5.081v.241a9.838,9.838,0,0,0-8.425,9.722A3.325,3.325,0,0,0,55.271,71.6h13A3.325,3.325,0,0,0,71.6,68.276,9.837,9.837,0,0,0,63.172,58.554ZM43.49,60.515v.734H20.556v-.734a2.065,2.065,0,0,1,2.063-2.063H41.427A2.065,2.065,0,0,1,43.49,60.515ZM37.9,55.656H26.15V48.664H37.9ZM68.276,68.8h-13a.525.525,0,0,1-.524-.524,7.027,7.027,0,1,1,14.054,0A.525.525,0,0,1,68.276,68.8Z" fill="#0a0284"/>
    <path id="XMLID_1070_" d="M172.875,47.064H175.1a1.532,1.532,0,0,0,0-3.064h-2.225a3.42,3.42,0,0,0-3.416,3.416v6.038a3.42,3.42,0,0,0,3.416,3.416H175.1a1.532,1.532,0,0,0,0-3.064h-2.225a.352.352,0,0,1-.352-.352V51.968h1.991a1.532,1.532,0,1,0,0-3.064h-1.991V47.416A.352.352,0,0,1,172.875,47.064Z" transform="translate(-145.991 -37.258)" fill="#0a0284"/>
    <path id="XMLID_1071_" d="M236.246,53.806h-2.63a1.532,1.532,0,1,0,0,3.064h2.63a3.984,3.984,0,1,0,0-7.968h-.179a.919.919,0,0,1,0-1.839h1.764a1.532,1.532,0,0,0,0-3.064h-1.764a3.984,3.984,0,0,0,0,7.968h.179a.919.919,0,1,1,0,1.839Z" transform="translate(-199.989 -37.258)" fill="#0a0284"/>
    <path id="XMLID_1072_" d="M110.31,56.871a1.532,1.532,0,0,0,1.532-1.532V47.064h1a1.532,1.532,0,1,0,0-3.064h-5.056a1.532,1.532,0,0,0,0,3.064h1v8.274A1.532,1.532,0,0,0,110.31,56.871Z" transform="translate(-91.556 -37.258)" fill="#0a0284"/>
    <path id="XMLID_1073_" d="M302.81,56.871a1.532,1.532,0,0,0,1.532-1.532V47.064h1a1.532,1.532,0,0,0,0-3.064h-5.056a1.532,1.532,0,0,0,0,3.064h1v8.274A1.532,1.532,0,0,0,302.81,56.871Z" transform="translate(-257.435 -37.258)" fill="#0a0284"/>
    <path id="XMLID_1076_" d="M55.532,168A1.532,1.532,0,0,0,54,169.532v6.129a1.532,1.532,0,0,0,1.532,1.532h6.129a1.532,1.532,0,0,0,1.532-1.532v-6.129A1.532,1.532,0,0,0,61.661,168Zm4.6,6.129H57.064v-3.064h3.064Z" transform="translate(-45.726 -144.806)" fill="#0a0284"/>
    <path id="XMLID_1120_" d="M135.2,211.064h9.593a1.532,1.532,0,1,0,0-3.064H135.2a1.532,1.532,0,1,0,0,3.064Z" transform="translate(-115.32 -179.027)" fill="#0a0284"/>
    <path id="XMLID_1123_" d="M247.659,177.193h6.129a1.532,1.532,0,0,0,1.532-1.532v-6.129A1.532,1.532,0,0,0,253.788,168h-6.129a1.532,1.532,0,0,0-1.532,1.532v6.129A1.532,1.532,0,0,0,247.659,177.193Zm1.532-6.129h3.065v3.064h-3.065Z" transform="translate(-212.147 -144.806)" fill="#0a0284"/>
    <path id="XMLID_1124_" d="M327.326,211.064h9.593a1.532,1.532,0,1,0,0-3.064h-9.593a1.532,1.532,0,0,0,0,3.064Z" transform="translate(-281.075 -179.027)" fill="#0a0284"/>
  </g>
</svg>
