<svg xmlns="http://www.w3.org/2000/svg" width="1920" height="760.689" viewBox="0 0 1920 760.689">
  <defs>
    <style>
      .cls-1 {
        fill: #32cbe4;
      }
    </style>
  </defs>
  <path id="Subtraction_1" data-name="Subtraction 1" class="cls-1" d="M361.713,2584.54c-9.8,0-19.478-.3-28.773-.88-9.605-.6-19.117-1.536-28.27-2.769-9.424-1.269-18.775-2.9-27.8-4.845-9.255-2-18.456-4.388-27.35-7.11-9.1-2.785-18.161-6-26.934-9.564-8.956-3.635-17.887-7.742-26.546-12.206-8.822-4.547-17.633-9.606-26.187-15.035-8.705-5.526-17.4-11.6-25.857-18.054V1823.85c22.9,41.638,52.666,70.455,91.014,88.1a212.5,212.5,0,0,0,28.522,10.64,264.045,264.045,0,0,0,30.73,7.022c20.167,3.4,42.374,5.057,67.889,5.057,23.468,0,49.438-1.369,81.729-4.309,28.757-2.618,58.829-6.144,90.666-9.876l.015,0,.112-.013c6.754-.792,13.738-1.61,20.7-2.419,35.212-4.089,73.2-8.3,112.363-11.425,43.85-3.495,83.752-5.194,121.984-5.194,24.639,0,49.066.725,72.605,2.156,25.421,1.545,50.762,3.971,75.32,7.209,26.207,3.456,52.425,7.955,77.926,13.372,26.978,5.731,54.035,12.677,80.421,20.646,24.1,7.278,49.055,13.686,74.176,19.046,24.2,5.164,49.206,9.5,74.325,12.874,24.144,3.247,49.037,5.7,73.987,7.291,23.925,1.526,48.54,2.3,73.161,2.3,21.94,0,44.451-.614,66.907-1.824,21.48-1.158,43.482-2.893,65.4-5.157,20.9-2.159,42.26-4.854,63.5-8.013,20.179-3,40.773-6.5,61.209-10.392a1705.057,1705.057,0,0,0,214.237-55.85c28.077-9.267,56.117-19.3,83.34-29.829,21.786-8.423,43.1-17.178,63.362-26.021,34.421-15.026,54.208-25.284,54.4-25.386v690.225l-.017.006c-1.059.3-10.847,3.091-28.4,7.124-16.99,3.9-44.9,9.792-81.391,15.685-41.009,6.623-84.264,11.9-128.565,15.685-55.375,4.731-112.55,7.131-169.939,7.133-146.076,0-294.414-15.35-440.9-45.632-18.527-3.83-37.347-7.2-55.938-10.011-17.988-2.721-36.282-5-54.374-6.778-17.461-1.713-35.242-3.007-52.85-3.846-16.936-.806-34.217-1.215-51.364-1.215-59,0-119.53,4.718-185.042,14.423-58.585,8.679-114.575,20.381-166.353,31.734-10.445,2.29-20.905,4.607-31.022,6.847l-.022.005c-46.7,10.344-90.818,20.115-133.4,27.369-22.8,3.884-43.268,6.725-62.574,8.687A591.069,591.069,0,0,1,361.713,2584.54Z" transform="translate(-144 -1823.85)"/>
</svg>
