<svg xmlns="http://www.w3.org/2000/svg" width="19.427" height="35.168" viewBox="0 0 19.427 35.168">
  <path id="facebook" d="M12.5,35.168H7.019a1.685,1.685,0,0,1-1.66-1.706v-12.7H2.16A1.686,1.686,0,0,1,.5,19.053V13.61A1.685,1.685,0,0,1,2.16,11.9h3.2V9.178A9.428,9.428,0,0,1,7.747,2.529,8.481,8.481,0,0,1,14.089,0l4.18.007a1.686,1.686,0,0,1,1.657,1.706V6.766a1.685,1.685,0,0,1-1.66,1.706H15.453c-.858,0-1.077.177-1.124.231-.077.09-.169.344-.169,1.046V11.9h3.9a1.652,1.652,0,0,1,.822.214,1.72,1.72,0,0,1,.854,1.492l0,5.443a1.685,1.685,0,0,1-1.66,1.705H14.16v12.7A1.686,1.686,0,0,1,12.5,35.168ZM7.365,33.106h4.789V19.836A1.125,1.125,0,0,1,13.262,18.7h4.461l0-4.731H13.262a1.125,1.125,0,0,1-1.108-1.139V9.75a3.581,3.581,0,0,1,.671-2.41,3.344,3.344,0,0,1,2.627-.928H17.92V2.068l-3.833-.006c-4.146,0-6.723,2.727-6.723,7.117v3.649a1.125,1.125,0,0,1-1.108,1.139H2.507V18.7h3.75a1.125,1.125,0,0,1,1.108,1.139Zm10.9-31.038h0Zm0,0" transform="translate(-0.5 0)" fill="#075ad0"/>
</svg>
