<svg xmlns="http://www.w3.org/2000/svg" width="1920" height="534.805" viewBox="0 0 1920 534.805">
  <defs>
    <style>
      .cls-1 {
        fill: #0757cf;
      }
    </style>
  </defs>
  <path id="Subtraction_2" data-name="Subtraction 2" class="cls-1" d="M-352,2270.927V1823.171a155.689,155.689,0,0,1,19.311-10.435,220.078,220.078,0,0,1,22.587-8.754c7.946-2.612,16.594-5.022,25.7-7.164,8.937-2.1,18.581-4.008,28.664-5.663,19.521-3.206,41.584-5.62,65.575-7.176,22.868-1.482,48.275-2.234,75.516-2.234,18.551,0,38.491.348,59.265,1.033,19.868.656,41.141,1.642,63.228,2.929,40.889,2.381,85.546,5.819,136.523,10.509,94.89,8.73,194.766,20.227,300.507,32.4l.014,0,.43.049,26.25,3.021c111.466,12.813,220.239,25.081,325.552,34.331,57.29,5.033,108.441,8.734,156.375,11.315,25.878,1.394,51.034,2.46,74.769,3.17,24.894.745,49.05,1.122,71.8,1.122,22.771,0,44.881-.378,65.716-1.124,21.589-.773,42.46-1.966,62.034-3.544,20.241-1.633,39.719-3.727,57.893-6.225,18.74-2.575,36.669-5.659,53.291-9.165,17.1-3.605,33.325-7.766,48.232-12.365a388.414,388.414,0,0,0,42.71-15.824,275.8,275.8,0,0,0,36.734-19.544,201.962,201.962,0,0,0,30.293-23.523c11.668-11.094,22.84-20.885,33.206-29.1a263.5,263.5,0,0,1,28.518-19.956c3.157-1.875,6.287-3.6,9.3-5.137V2264Z" transform="translate(352 -1736.122)"/>
</svg>
