<svg id="computer-graphic" xmlns="http://www.w3.org/2000/svg" width="71.597" height="71.597" viewBox="0 0 71.597 71.597">
  <g id="Group_4" data-name="Group 4" transform="translate(0 0)">
    <g id="Group_3" data-name="Group 3">
      <path id="Path_15" data-name="Path 15" d="M68.241,8H3.356A3.411,3.411,0,0,0,0,11.464V62.275A1.137,1.137,0,0,0,1.119,63.43H26.6l-1.79,9.238H22.374a1.137,1.137,0,0,0-1.119,1.155v3.464H19.018V79.6H52.579v-2.31H50.342V73.823a1.137,1.137,0,0,0-1.119-1.155H46.782l-1.79-9.238H70.478A1.137,1.137,0,0,0,71.6,62.275V11.464A3.411,3.411,0,0,0,68.241,8ZM45.867,74.978H48.1v2.31H23.493v-2.31H45.867Zm-18.772-2.31,1.788-9.238H42.712l1.79,9.238ZM69.36,61.12H2.237V50.727H69.36ZM53.7,18.393h-8.95a1.137,1.137,0,0,0-1.119,1.155V29.941h2.237V20.7h6.712v4.619H48.1v2.31h4.475v5.774H48.1v2.31h4.475v5.774H48.1V43.8h4.475v4.619H45.867V39.179H43.629v9.238H39.155V42.644c0-4.713,5.544-5.749,5.777-5.79a1.1,1.1,0,0,0,.39-.148,1.176,1.176,0,0,0,.385-1.584L35.639,17.8a1.182,1.182,0,0,0-.3-.311,1.14,1.14,0,0,0-1.616.311L23.653,35.121a1.176,1.176,0,0,0-.143.4,1.152,1.152,0,0,0,.915,1.332c.236.042,5.78,1.077,5.78,5.79v5.774H25.73V39.179H23.493v9.238H22.374V27.631h1.119v2.31H25.73V26.477a1.173,1.173,0,0,0-.091-.455l-3.356-8.084a1.137,1.137,0,0,0-.587-.606,1.106,1.106,0,0,0-1.469.606l-3.356,8.084a1.173,1.173,0,0,0-.091.455V48.418H7.831V16.084H63.766V48.418h-8.95V19.548A1.137,1.137,0,0,0,53.7,18.393ZM32.442,44.953V43.8h4.475v1.155Zm4.475,2.31v1.155H32.442V47.263Zm-4.556-5.774c-.536-3.672-3.582-5.658-6.019-6.507l7.219-12.419v9.688H35.8V22.563l7.219,12.419c-2.439.843-5.483,2.835-6.019,6.507H32.361ZM19.593,25.322l1.662-4,1.662,4Zm.543,2.31V48.418H19.018V27.631ZM69.36,48.418H66V14.929a1.137,1.137,0,0,0-1.119-1.155H6.712a1.137,1.137,0,0,0-1.119,1.155V48.418H2.237V11.464A1.137,1.137,0,0,1,3.356,10.31H68.241a1.137,1.137,0,0,1,1.119,1.155Z" transform="translate(0 -8)" fill="#0a0284"/>
    </g>
  </g>
  <g id="Group_6" data-name="Group 6" transform="translate(32.239 43.753)">
    <g id="Group_5" data-name="Group 5">
      <path id="Path_16" data-name="Path 16" d="M235.559,312a3.559,3.559,0,1,0,3.559,3.559A3.559,3.559,0,0,0,235.559,312Zm0,4.746a1.186,1.186,0,1,1,1.186-1.186A1.187,1.187,0,0,1,235.559,316.746Z" transform="translate(-232 -312)" fill="#0a0284"/>
    </g>
  </g>
</svg>
