<svg xmlns="http://www.w3.org/2000/svg" width="38.15" height="39.629" viewBox="0 0 38.15 39.629">
  <g id="instagram_1_" data-name="instagram (1)" transform="translate(-1.999 -1.11)">
    <g id="Group_104" data-name="Group 104" transform="translate(1.999 1.111)">
      <path id="Path_68" data-name="Path 68" d="M27.822,0h-17.5A10.545,10.545,0,0,0,0,10.727V28.9A10.545,10.545,0,0,0,10.326,39.629h17.5A10.544,10.544,0,0,0,38.149,28.9V10.727A10.545,10.545,0,0,0,27.822,0Zm8.09,28.9a8.261,8.261,0,0,1-8.09,8.4h-17.5a8.261,8.261,0,0,1-8.09-8.4V10.727a8.261,8.261,0,0,1,8.09-8.4h17.5a8.261,8.261,0,0,1,8.09,8.4Zm0,0" transform="translate(0.001 0)" fill="#075ad0"/>
      <path id="Path_69" data-name="Path 69" d="M124.814,116a8.81,8.81,0,1,0,8.81,8.81A8.82,8.82,0,0,0,124.814,116Zm0,15.731a6.921,6.921,0,1,1,6.921-6.921A6.929,6.929,0,0,1,124.814,131.735Zm0,0" transform="translate(-105.739 -101.728)" fill="#075ad0"/>
      <path id="Path_70" data-name="Path 70" d="M361.831,66.285a3.855,3.855,0,1,0,3.855,3.855A3.859,3.859,0,0,0,361.831,66.285Zm0,4.912a1.058,1.058,0,1,1,1.058-1.058A1.059,1.059,0,0,1,361.831,71.2Zm0,0" transform="translate(-333.334 -60.032)" fill="#075ad0"/>
    </g>
  </g>
</svg>
