<svg xmlns="http://www.w3.org/2000/svg" width="63.019" height="75.929" viewBox="0 0 63.019 75.929">
  <g id="application" transform="translate(0)">
    <path id="Path_2" data-name="Path 2" d="M80.477,110.929h27.486a7.911,7.911,0,0,0,7.9-7.9V93.75h1.891a1.031,1.031,0,0,0,1.026-.932l.344-3.561a16.617,16.617,0,0,0,4.237-1.783l2.734,2.264a1.031,1.031,0,0,0,1.386-.065l4.086-4.086a1.031,1.031,0,0,0,.065-1.386l-2.27-2.741a16.952,16.952,0,0,0,1.788-4.232l3.511-.343a1.031,1.031,0,0,0,.931-1.026V70.068a1.031,1.031,0,0,0-.932-1.026L131.1,68.7a16.621,16.621,0,0,0-1.783-4.238l2.264-2.734a1.031,1.031,0,0,0-.06-1.381l-4.034-4.086a1.031,1.031,0,0,0-1.391-.07l-2.741,2.27a16.956,16.956,0,0,0-4.231-1.788l-.344-3.562a1.031,1.031,0,0,0-1.025-.931h-1.891V42.9a7.911,7.911,0,0,0-7.9-7.9H80.477a7.911,7.911,0,0,0-7.9,7.9v60.125a7.911,7.911,0,0,0,7.9,7.9ZM117.144,57.6a1.031,1.031,0,0,0,.808.909,14.922,14.922,0,0,1,4.934,2.083,1.031,1.031,0,0,0,1.216-.072l2.582-2.139,2.715,2.75-2.146,2.592a1.031,1.031,0,0,0-.064,1.229,14.464,14.464,0,0,1,2.074,4.921,1.031,1.031,0,0,0,.909.807l3.361.324v3.921l-3.31.325a1.031,1.031,0,0,0-.907.807,14.917,14.917,0,0,1-2.082,4.934,1.031,1.031,0,0,0,.072,1.216l2.142,2.587-2.759,2.759L124.1,85.41a1.031,1.031,0,0,0-1.229-.064,14.47,14.47,0,0,1-4.921,2.074,1.031,1.031,0,0,0-.807.909l-.325,3.36H112.9l-.324-3.36a1.031,1.031,0,0,0-.807-.909,14.922,14.922,0,0,1-4.934-2.083,1.031,1.031,0,0,0-1.216.072l-2.587,2.142-2.759-2.759,2.143-2.587a1.031,1.031,0,0,0,.064-1.229,14.466,14.466,0,0,1-2.074-4.921,1.031,1.031,0,0,0-.909-.807l-3.36-.324V71l3.36-.324a1.031,1.031,0,0,0,.909-.807,14.92,14.92,0,0,1,2.083-4.935,1.031,1.031,0,0,0-.072-1.216l-2.143-2.587,2.759-2.759,2.587,2.142a1.031,1.031,0,0,0,1.229.064,14.467,14.467,0,0,1,4.921-2.074,1.031,1.031,0,0,0,.807-.909l.325-3.36h3.92ZM80.477,37.061h27.486A5.847,5.847,0,0,1,113.8,42.9v2.4h-2.4a1.031,1.031,0,0,0,0,2.061h2.4v4.81h-1.839a1.031,1.031,0,0,0-1.026.932l-.344,3.562a16.618,16.618,0,0,0-4.237,1.783l-2.734-2.264a1.031,1.031,0,0,0-1.386.065l-4.086,4.086a1.031,1.031,0,0,0-.065,1.386l2.27,2.741A16.965,16.965,0,0,0,98.568,68.7l-3.562.344a1.031,1.031,0,0,0-.932,1.026v5.792a1.031,1.031,0,0,0,.932,1.026l3.561.344a16.627,16.627,0,0,0,1.783,4.238L98.086,84.2a1.031,1.031,0,0,0,.065,1.386l4.086,4.086a1.031,1.031,0,0,0,1.386.065l2.741-2.27a16.953,16.953,0,0,0,4.232,1.787l.344,3.562a1.031,1.031,0,0,0,1.025.932H113.8V96.5H74.636V47.368h28a1.031,1.031,0,1,0,0-2.061h-28V42.9a5.847,5.847,0,0,1,5.841-5.841Zm-5.841,61.5H113.8v4.466a5.847,5.847,0,0,1-5.841,5.841H80.477a5.847,5.847,0,0,1-5.841-5.841Z" transform="translate(-72.575 -35)" fill="#0a0284"/>
    <path id="Path_3" data-name="Path 3" d="M262.3,97.061h1.909a1.031,1.031,0,0,0,0-2.061H262.3a1.031,1.031,0,1,0,0,2.061Z" transform="translate(-228.855 -84.693)" fill="#0a0284"/>
    <path id="Path_4" data-name="Path 4" d="M181.182,421.215a3.607,3.607,0,1,0-3.607-3.607,3.607,3.607,0,0,0,3.607,3.607Zm0-5.154a1.546,1.546,0,1,1-1.546,1.546,1.546,1.546,0,0,1,1.546-1.546Z" transform="translate(-159.538 -348.894)" fill="#0a0284"/>
    <path id="Path_5" data-name="Path 5" d="M247.08,196.662a12.308,12.308,0,1,0,12.308-12.308A12.308,12.308,0,0,0,247.08,196.662Zm12.308-10.246a10.246,10.246,0,1,1-10.246,10.246,10.246,10.246,0,0,1,10.246-10.246Z" transform="translate(-217.103 -158.697)" fill="#0a0284"/>
    <path id="Path_6" data-name="Path 6" d="M289.02,240.558a1.031,1.031,0,0,0,1.44,0l6.01-5.867a1.031,1.031,0,1,0-1.44-1.475l-5.29,5.164-2.616-2.554a1.031,1.031,0,0,0-1.44,1.475Z" transform="translate(-248.818 -198.922)" fill="#0a0284"/>
    <path id="Path_7" data-name="Path 7" d="M167.165,237h-1.424a1.031,1.031,0,1,0,0,2.061h1.424a1.031,1.031,0,0,0,0-2.061Z" transform="translate(-148.883 -202.299)" fill="#0a0284"/>
    <path id="Path_8" data-name="Path 8" d="M103.031,239.061h6.215a1.031,1.031,0,1,0,0-2.061h-6.215a1.031,1.031,0,0,0,0,2.061Z" transform="translate(-96.945 -202.299)" fill="#0a0284"/>
    <path id="Path_9" data-name="Path 9" d="M142.318,287h-6.578a1.031,1.031,0,0,0,0,2.061h6.578a1.031,1.031,0,1,0,0-2.061Z" transform="translate(-124.036 -243.71)" fill="#0a0284"/>
    <path id="Path_10" data-name="Path 10" d="M103.031,289.061h1.061a1.031,1.031,0,1,0,0-2.061h-1.061a1.031,1.031,0,0,0,0,2.061Z" transform="translate(-96.945 -243.71)" fill="#0a0284"/>
    <path id="Path_11" data-name="Path 11" d="M175,338.031a1.031,1.031,0,0,0,1.031,1.031h4.81a1.031,1.031,0,1,0,0-2.061h-4.81A1.031,1.031,0,0,0,175,338.031Z" transform="translate(-157.405 -285.121)" fill="#0a0284"/>
    <path id="Path_12" data-name="Path 12" d="M110.963,337h-7.933a1.031,1.031,0,0,0,0,2.061h7.933a1.031,1.031,0,1,0,0-2.061Z" transform="translate(-96.945 -285.121)" fill="#0a0284"/>
    <path id="Path_13" data-name="Path 13" d="M146.031,185.061h6.528a1.031,1.031,0,0,0,0-2.061h-6.528a1.031,1.031,0,1,0,0,2.061Z" transform="translate(-132.558 -157.576)" fill="#0a0284"/>
    <path id="Path_14" data-name="Path 14" d="M103.031,185.061h2.779a1.031,1.031,0,1,0,0-2.061h-2.779a1.031,1.031,0,0,0,0,2.061Z" transform="translate(-96.945 -157.576)" fill="#0a0284"/>
  </g>
</svg>
