<svg id="network" xmlns="http://www.w3.org/2000/svg" width="71.068" height="71.068" viewBox="0 0 71.068 71.068">
  <g id="Group_8" data-name="Group 8" transform="translate(61.175 14.117)">
    <g id="Group_7" data-name="Group 7">
      <path id="Path_25" data-name="Path 25" d="M448.681,102.4a4.947,4.947,0,1,0,4.947,4.947A4.952,4.952,0,0,0,448.681,102.4Zm0,7.42a2.473,2.473,0,1,1,2.473-2.473A2.476,2.476,0,0,1,448.681,109.82Z" transform="translate(-443.734 -102.4)" fill="#0a0284"/>
    </g>
  </g>
  <g id="Group_10" data-name="Group 10" transform="translate(0 52.518)">
    <g id="Group_9" data-name="Group 9">
      <path id="Path_26" data-name="Path 26" d="M4.947,384a4.947,4.947,0,1,0,4.947,4.947A4.952,4.952,0,0,0,4.947,384Zm0,7.42a2.473,2.473,0,1,1,2.473-2.473A2.476,2.476,0,0,1,4.947,391.42Z" transform="translate(0 -384)" fill="#0a0284"/>
    </g>
  </g>
  <g id="Group_12" data-name="Group 12" transform="translate(51.281 11.129)">
    <g id="Group_11" data-name="Group 11">
      <path id="Path_27" data-name="Path 27" d="M387.905,82.066l-10.669-5.151a1.236,1.236,0,0,0-1.075,2.227l10.669,5.151a1.236,1.236,0,0,0,1.075-2.227Z" transform="translate(-375.463 -76.792)" fill="#0a0284"/>
    </g>
  </g>
  <g id="Group_14" data-name="Group 14" transform="translate(48.234 61.175)">
    <g id="Group_13" data-name="Group 13">
      <path id="Path_28" data-name="Path 28" d="M354.814,443.733a4.947,4.947,0,1,0,4.947,4.947A4.952,4.952,0,0,0,354.814,443.733Zm0,7.42a2.473,2.473,0,1,1,2.473-2.473A2.476,2.476,0,0,1,354.814,451.153Z" transform="translate(-349.867 -443.733)" fill="#0a0284"/>
    </g>
  </g>
  <g id="Group_16" data-name="Group 16" transform="translate(38.716 57.463)">
    <g id="Group_15" data-name="Group 15">
      <path id="Path_29" data-name="Path 29" d="M294.038,423.4l-10.669-5.151a1.236,1.236,0,0,0-1.075,2.227l10.669,5.151a1.236,1.236,0,1,0,1.075-2.227Z" transform="translate(-281.596 -418.124)" fill="#0a0284"/>
    </g>
  </g>
  <g id="Group_18" data-name="Group 18" transform="translate(30.587 31.764)">
    <g id="Group_17" data-name="Group 17">
      <path id="Path_30" data-name="Path 30" d="M226.814,230.4a4.947,4.947,0,1,0,4.947,4.947A4.952,4.952,0,0,0,226.814,230.4Zm0,7.42a2.473,2.473,0,1,1,2.473-2.473A2.476,2.476,0,0,1,226.814,237.82Z" transform="translate(-221.867 -230.4)" fill="#0a0284"/>
    </g>
  </g>
  <g id="Group_20" data-name="Group 20" transform="translate(23.514 27.081)">
    <g id="Group_19" data-name="Group 19">
      <path id="Path_31" data-name="Path 31" d="M180.857,202.919l-8.2-6.387a1.237,1.237,0,0,0-1.521,1.952l8.2,6.387a1.237,1.237,0,1,0,1.521-1.952Z" transform="translate(-170.664 -196.272)" fill="#0a0284"/>
    </g>
  </g>
  <g id="Group_22" data-name="Group 22" transform="translate(42.625 30.01)">
    <g id="Group_21" data-name="Group 21">
      <path id="Path_32" data-name="Path 32" d="M329.336,221.867a13.6,13.6,0,1,0,13.6,13.6A13.619,13.619,0,0,0,329.336,221.867Zm0,24.733a11.13,11.13,0,1,1,11.13-11.13A11.142,11.142,0,0,1,329.336,246.6Z" transform="translate(-315.733 -221.867)" fill="#0a0284"/>
    </g>
  </g>
  <g id="Group_24" data-name="Group 24" transform="translate(51.281 35.293)">
    <g id="Group_23" data-name="Group 23">
      <path id="Path_33" data-name="Path 33" d="M380.414,256a4.947,4.947,0,1,0,4.947,4.947A4.952,4.952,0,0,0,380.414,256Zm0,7.42a2.473,2.473,0,1,1,2.473-2.473A2.476,2.476,0,0,1,380.414,263.42Z" transform="translate(-375.467 -256)" fill="#0a0284"/>
    </g>
  </g>
  <g id="Group_26" data-name="Group 26" transform="translate(48.808 47.057)">
    <g id="Group_25" data-name="Group 25">
      <path id="Path_34" data-name="Path 34" d="M369.408,341.333h-7.175a3.786,3.786,0,0,0-3.832,3.729v3.26a1.238,1.238,0,0,0,.617,1.071,13.534,13.534,0,0,0,13.606,0,1.235,1.235,0,0,0,.617-1.07v-3.26A3.786,3.786,0,0,0,369.408,341.333Zm1.359,6.251a11.213,11.213,0,0,1-9.893,0v-2.521a1.312,1.312,0,0,1,1.359-1.256h7.175a1.312,1.312,0,0,1,1.359,1.256v2.521Z" transform="translate(-358.4 -341.333)" fill="#0a0284"/>
    </g>
  </g>
  <g id="Group_28" data-name="Group 28" transform="translate(15.005 43.861)">
    <g id="Group_27" data-name="Group 27">
      <path id="Path_35" data-name="Path 35" d="M124.536,324.267a13.6,13.6,0,1,0,13.6,13.6A13.619,13.619,0,0,0,124.536,324.267Zm0,24.733a11.13,11.13,0,1,1,11.13-11.13A11.142,11.142,0,0,1,124.536,349Z" transform="translate(-110.933 -324.267)" fill="#0a0284"/>
    </g>
  </g>
  <g id="Group_30" data-name="Group 30" transform="translate(23.529 49.41)">
    <g id="Group_29" data-name="Group 29">
      <path id="Path_36" data-name="Path 36" d="M175.614,358.4a4.947,4.947,0,1,0,4.947,4.947A4.952,4.952,0,0,0,175.614,358.4Zm0,7.42a2.473,2.473,0,1,1,2.473-2.473A2.476,2.476,0,0,1,175.614,365.82Z" transform="translate(-170.667 -358.4)" fill="#0a0284"/>
    </g>
  </g>
  <g id="Group_32" data-name="Group 32" transform="translate(21.085 61.175)">
    <g id="Group_31" data-name="Group 31">
      <path id="Path_37" data-name="Path 37" d="M164.607,443.733h-7.175a3.786,3.786,0,0,0-3.832,3.729v3.26a1.238,1.238,0,0,0,.617,1.071,13.534,13.534,0,0,0,13.606,0,1.235,1.235,0,0,0,.617-1.07v-3.26A3.786,3.786,0,0,0,164.607,443.733Zm1.359,6.251a11.213,11.213,0,0,1-9.893,0v-2.521a1.312,1.312,0,0,1,1.359-1.256h7.175a1.312,1.312,0,0,1,1.359,1.256v2.521Z" transform="translate(-153.6 -443.733)" fill="#0a0284"/>
    </g>
  </g>
  <g id="Group_34" data-name="Group 34" transform="translate(0 15.005)">
    <g id="Group_33" data-name="Group 33">
      <path id="Path_38" data-name="Path 38" d="M13.6,110.933a13.6,13.6,0,1,0,13.6,13.6A13.619,13.619,0,0,0,13.6,110.933Zm0,24.733a11.13,11.13,0,1,1,11.13-11.13A11.142,11.142,0,0,1,13.6,135.666Z" transform="translate(0 -110.933)" fill="#0a0284"/>
    </g>
  </g>
  <g id="Group_36" data-name="Group 36" transform="translate(8.657 19.999)">
    <g id="Group_35" data-name="Group 35">
      <path id="Path_39" data-name="Path 39" d="M64.681,145.067a4.947,4.947,0,1,0,4.947,4.947A4.952,4.952,0,0,0,64.681,145.067Zm0,7.42a2.473,2.473,0,1,1,2.473-2.473A2.476,2.476,0,0,1,64.681,152.487Z" transform="translate(-59.734 -145.067)" fill="#0a0284"/>
    </g>
  </g>
  <g id="Group_38" data-name="Group 38" transform="translate(6.183 31.764)">
    <g id="Group_37" data-name="Group 37">
      <path id="Path_40" data-name="Path 40" d="M53.675,230.4H46.5a3.786,3.786,0,0,0-3.832,3.729v3.26a1.238,1.238,0,0,0,.617,1.071,13.534,13.534,0,0,0,13.606,0,1.235,1.235,0,0,0,.617-1.07v-3.26A3.786,3.786,0,0,0,53.675,230.4Zm1.359,6.251a11.213,11.213,0,0,1-9.893,0V234.13a1.312,1.312,0,0,1,1.359-1.256h7.175a1.312,1.312,0,0,1,1.359,1.256v2.521Z" transform="translate(-42.667 -230.4)" fill="#0a0284"/>
    </g>
  </g>
  <g id="Group_40" data-name="Group 40" transform="translate(27.702)">
    <g id="Group_39" data-name="Group 39">
      <path id="Path_41" data-name="Path 41" d="M218.4,0a13.6,13.6,0,1,0,13.6,13.6A13.619,13.619,0,0,0,218.4,0Zm0,24.733a11.13,11.13,0,1,1,11.13-11.13A11.142,11.142,0,0,1,218.4,24.733Z" transform="translate(-204.8)" fill="#0a0284"/>
    </g>
  </g>
  <g id="Group_42" data-name="Group 42" transform="translate(36.47 4.947)">
    <g id="Group_41" data-name="Group 41">
      <path id="Path_42" data-name="Path 42" d="M269.481,34.133a4.947,4.947,0,1,0,4.947,4.947A4.952,4.952,0,0,0,269.481,34.133Zm0,7.42a2.473,2.473,0,1,1,2.473-2.473A2.476,2.476,0,0,1,269.481,41.553Z" transform="translate(-264.534 -34.133)" fill="#0a0284"/>
    </g>
  </g>
  <g id="Group_44" data-name="Group 44" transform="translate(33.971 16.47)">
    <g id="Group_43" data-name="Group 43">
      <path id="Path_43" data-name="Path 43" d="M258.474,119.467H251.3a3.786,3.786,0,0,0-3.832,3.729v3.26a1.238,1.238,0,0,0,.617,1.071,13.534,13.534,0,0,0,13.606,0,1.235,1.235,0,0,0,.617-1.07V123.2A3.786,3.786,0,0,0,258.474,119.467Zm1.359,6.251a11.213,11.213,0,0,1-9.893,0V123.2a1.312,1.312,0,0,1,1.359-1.256h7.175a1.312,1.312,0,0,1,1.359,1.256v2.521Z" transform="translate(-247.467 -119.467)" fill="#0a0284"/>
    </g>
  </g>
  <g id="Group_46" data-name="Group 46" transform="translate(20.064 11.765)">
    <g id="Group_45" data-name="Group 45">
      <path id="Path_44" data-name="Path 44" d="M156.418,85.765a1.238,1.238,0,0,0-1.744-.135l-8.57,7.333a1.236,1.236,0,1,0,1.608,1.878l8.57-7.333A1.236,1.236,0,0,0,156.418,85.765Z" transform="translate(-145.671 -85.333)" fill="#0a0284"/>
    </g>
  </g>
  <g id="Group_48" data-name="Group 48" transform="translate(47.057 21.134)">
    <g id="Group_47" data-name="Group 47">
      <path id="Path_45" data-name="Path 45" d="M350.979,164l-7.42-9.893a1.236,1.236,0,0,0-1.979,1.483l7.42,9.893A1.236,1.236,0,0,0,350.979,164Z" transform="translate(-341.333 -153.61)" fill="#0a0284"/>
    </g>
  </g>
  <g id="Group_50" data-name="Group 50" transform="translate(37.905 47.029)">
    <g id="Group_49" data-name="Group 49">
      <path id="Path_46" data-name="Path 46" d="M283.967,341.035a1.237,1.237,0,0,0-1.731-.247l-6.908,5.18a1.236,1.236,0,0,0,1.484,1.977l6.908-5.18A1.235,1.235,0,0,0,283.967,341.035Z" transform="translate(-274.833 -340.54)" fill="#0a0284"/>
    </g>
  </g>
  <g id="Group_52" data-name="Group 52" transform="translate(7.42 56.768)">
    <g id="Group_51" data-name="Group 51">
      <path id="Path_47" data-name="Path 47" d="M61.093,409.6H52.437a1.237,1.237,0,1,0,0,2.473h8.657a1.237,1.237,0,0,0,0-2.473Z" transform="translate(-51.2 -409.6)" fill="#0a0284"/>
    </g>
  </g>
  <g id="Group_54" data-name="Group 54" transform="translate(8.657)">
    <g id="Group_53" data-name="Group 53">
      <path id="Path_48" data-name="Path 48" d="M64.68,0a4.947,4.947,0,1,0,4.946,4.947A4.952,4.952,0,0,0,64.68,0Zm0,7.42a2.473,2.473,0,1,1,2.473-2.473A2.476,2.476,0,0,1,64.68,7.42Z" transform="translate(-59.733)" fill="#0a0284"/>
    </g>
  </g>
  <g id="Group_56" data-name="Group 56" transform="translate(12.367 7.42)">
    <g id="Group_55" data-name="Group 55">
      <path id="Path_49" data-name="Path 49" d="M86.571,51.2a1.236,1.236,0,0,0-1.237,1.237v8.657a1.237,1.237,0,0,0,2.473,0V52.437A1.236,1.236,0,0,0,86.571,51.2Z" transform="translate(-85.334 -51.2)" fill="#0a0284"/>
    </g>
  </g>
</svg>
