<svg xmlns="http://www.w3.org/2000/svg" width="54.694" height="76.673" viewBox="0 0 54.694 76.673">
  <g id="tap" transform="translate(-0.079 -0.001)">
    <path id="Path_56" data-name="Path 56" d="M.334,34.93a4,4,0,0,0,1.157,4.454c2.439,2.44,7.454,11.25,9.936,17.457,1.694,4.234,5.414,8.389,8.236,11.131a6.342,6.342,0,0,1,1.893,4.534v.467a3.833,3.833,0,0,0,3.833,3.833h20.44a3.833,3.833,0,0,0,3.833-3.833V69.049A1.172,1.172,0,0,1,50,68.18c4.715-4.312,4.769-11.509,4.769-11.813V36.142a5.246,5.246,0,0,0-4.738-5.313,5.107,5.107,0,0,0-2.927.7V29.539a5.081,5.081,0,0,0-7.72-4.37,5.05,5.05,0,0,0-7.611-3.862V19.191a10.092,10.092,0,0,0,5.111-8.815,10.22,10.22,0,0,0-20.44,0,10.092,10.092,0,0,0,5.11,8.815V39.759a14.134,14.134,0,0,1-.608,4.455,1.291,1.291,0,0,1-.921.858,1.231,1.231,0,0,1-1.15-.3A18.158,18.158,0,0,1,16.236,41.6c-2.217-3.316-7.8-9.511-11.287-9.511A5,5,0,0,0,.334,34.93ZM19,10.376a7.665,7.665,0,0,1,15.33,0A7.587,7.587,0,0,1,31.776,16.1V10.376a5.11,5.11,0,0,0-10.22,0V16.1A7.589,7.589,0,0,1,19,10.376Zm-4.9,32.647a20.757,20.757,0,0,0,3.019,3.609,3.78,3.78,0,0,0,3.523.919,3.851,3.851,0,0,0,2.721-2.519,16.639,16.639,0,0,0,.742-5.273V10.376a2.555,2.555,0,0,1,5.11,0V37.2a1.277,1.277,0,1,0,2.555,0v-11.5a2.555,2.555,0,0,1,5.111,0V37.2a1.277,1.277,0,1,0,2.555,0V29.539a2.555,2.555,0,0,1,5.11,0v8.943a1.277,1.277,0,0,0,2.555,0V35.926a2.533,2.533,0,0,1,.75-1.805,2.585,2.585,0,0,1,1.993-.743,2.721,2.721,0,0,1,2.367,2.764V56.366c0,.063-.065,6.388-3.94,9.929a3.728,3.728,0,0,0-1.17,2.754v3.925a1.278,1.278,0,0,1-1.278,1.278H25.389a1.278,1.278,0,0,1-1.278-1.278v-.467a8.916,8.916,0,0,0-2.668-6.367c-2.164-2.1-6.035-6.229-7.642-10.248C11.172,49.322,5.97,40.25,3.3,37.578c-.608-.608-.812-1.17-.6-1.671a2.519,2.519,0,0,1,2.256-1.258c1.736,0,6.444,4.3,9.157,8.374Zm0,0" transform="translate(0 -0.132)"/>
    <path id="Path_57" data-name="Path 57" d="M315.488,309.044a1.278,1.278,0,0,0,1.278-1.278V300.1a1.277,1.277,0,0,0-2.555,0v7.665A1.278,1.278,0,0,0,315.488,309.044Zm0,0" transform="translate(-267.104 -254.088)"/>
    <path id="Path_58" data-name="Path 58" d="M306.956,389.368a1.276,1.276,0,0,0,.9-.374,5.186,5.186,0,0,0,1.652-3.458,1.261,1.261,0,0,0-1.247-1.259,1.285,1.285,0,0,0-1.308,1.23,2.81,2.81,0,0,1-.9,1.681,1.278,1.278,0,0,0,.9,2.181Zm0,0" transform="translate(-259.849 -326.746)"/>
    <path id="Path_59" data-name="Path 59" d="M178.954,463.512h1.277a1.277,1.277,0,1,0,0-2.555h-1.277a1.277,1.277,0,1,0,0,2.555Zm0,0" transform="translate(-151.009 -391.947)"/>
    <path id="Path_60" data-name="Path 60" d="M221.621,463.512h8.943a1.277,1.277,0,1,0,0-2.555h-8.943a1.277,1.277,0,0,0,0,2.555Zm0,0" transform="translate(-187.289 -391.947)"/>
    <path id="Path_61" data-name="Path 61" d="M80.388,21.153A1.278,1.278,0,0,0,81.319,19a12.744,12.744,0,0,1-.56-16.885A1.278,1.278,0,1,0,78.791.488a15.3,15.3,0,0,0,.666,20.263,1.278,1.278,0,0,0,.931.4Zm0,0" transform="translate(-63.941 0)"/>
    <path id="Path_62" data-name="Path 62" d="M243.76,17.768a1.277,1.277,0,0,0,1.719-.554A15.278,15.278,0,0,0,243.653.488a1.277,1.277,0,1,0-1.968,1.627,12.725,12.725,0,0,1,1.522,13.934,1.277,1.277,0,0,0,.553,1.719Zm0,0" transform="translate(-205.17 0)"/>
  </g>
</svg>
