<svg xmlns="http://www.w3.org/2000/svg" width="62.9" height="72.508" viewBox="0 0 62.9 72.508">
  <g id="tap" transform="translate(-0.007 16.209) rotate(-22)">
    <path id="Path_56" data-name="Path 56" d="M.281,27.695A3.168,3.168,0,0,0,1.2,31.223c1.931,1.933,5.9,8.909,7.869,13.825,1.342,3.353,4.288,6.644,6.523,8.815a5.022,5.022,0,0,1,1.5,3.591v.37a3.035,3.035,0,0,0,3.035,3.035H36.31a3.035,3.035,0,0,0,3.035-3.035V54.715a.928.928,0,0,1,.27-.689c3.734-3.415,3.777-9.115,3.777-9.356V28.655a4.155,4.155,0,0,0-3.752-4.207A4.045,4.045,0,0,0,37.322,25V23.425a4.024,4.024,0,0,0-6.114-3.461,4,4,0,0,0-6.027-3.058V15.23A7.992,7.992,0,0,0,29.229,8.25a8.094,8.094,0,0,0-16.188,0,7.993,7.993,0,0,0,4.047,6.981V31.519a11.193,11.193,0,0,1-.482,3.528,1.023,1.023,0,0,1-.729.68.975.975,0,0,1-.911-.239,14.38,14.38,0,0,1-2.092-2.507c-1.756-2.626-6.173-7.532-8.939-7.532A3.963,3.963,0,0,0,.281,27.695ZM15.065,8.25a6.07,6.07,0,1,1,12.14,0,6.009,6.009,0,0,1-2.023,4.531V8.25a4.047,4.047,0,1,0-8.094,0V12.78A6.01,6.01,0,0,1,15.065,8.25ZM11.188,34.1a16.438,16.438,0,0,0,2.391,2.858,2.993,2.993,0,0,0,2.79.728,3.049,3.049,0,0,0,2.155-2,13.177,13.177,0,0,0,.588-4.176V8.25a2.023,2.023,0,0,1,4.047,0V29.5a1.012,1.012,0,1,0,2.023,0v-9.1a2.024,2.024,0,0,1,4.047,0v9.1a1.012,1.012,0,1,0,2.023,0v-6.07a2.023,2.023,0,1,1,4.047,0v7.082a1.012,1.012,0,0,0,2.023,0V28.484a2.006,2.006,0,0,1,.594-1.43,2.047,2.047,0,0,1,1.578-.589,2.154,2.154,0,0,1,1.875,2.189V44.671c0,.05-.051,5.059-3.12,7.863a2.952,2.952,0,0,0-.927,2.181v3.108a1.012,1.012,0,0,1-1.012,1.012H20.123a1.012,1.012,0,0,1-1.012-1.012v-.37A7.061,7.061,0,0,0,17,52.411c-1.714-1.664-4.779-4.933-6.052-8.116-2.082-5.2-6.2-12.387-8.318-14.5-.482-.481-.643-.927-.479-1.323a2,2,0,0,1,1.787-1c1.375,0,5.1,3.409,7.252,6.632Zm0,0" transform="translate(-0.079 -0.138)"/>
    <path id="Path_57" data-name="Path 57" d="M315.222,306.918a1.012,1.012,0,0,0,1.012-1.012v-6.07a1.012,1.012,0,0,0-2.023,0v6.07A1.012,1.012,0,0,0,315.222,306.918Zm0,0" transform="translate(-276.967 -263.396)"/>
    <path id="Path_58" data-name="Path 58" d="M306.69,388.308a1.01,1.01,0,0,0,.715-.3,4.108,4.108,0,0,0,1.308-2.739,1,1,0,0,0-.987-1,1.018,1.018,0,0,0-1.036.974,2.226,2.226,0,0,1-.716,1.331,1.012,1.012,0,0,0,.716,1.727Zm0,0" transform="translate(-269.447 -338.716)"/>
    <path id="Path_59" data-name="Path 59" d="M178.688,462.98H179.7a1.012,1.012,0,1,0,0-2.023h-1.011a1.012,1.012,0,1,0,0,2.023Zm0,0" transform="translate(-156.62 -406.306)"/>
    <path id="Path_60" data-name="Path 60" d="M221.355,462.98h7.082a1.012,1.012,0,1,0,0-2.023h-7.082a1.012,1.012,0,0,0,0,2.023Zm0,0" transform="translate(-194.229 -406.306)"/>
    <path id="Path_61" data-name="Path 61" d="M79.325,16.752a1.012,1.012,0,0,0,.738-1.7,10.092,10.092,0,0,1-.443-13.372A1.012,1.012,0,1,0,78.06.387a12.117,12.117,0,0,0,.527,16.047,1.012,1.012,0,0,0,.737.319Zm0,0" transform="translate(-66.362 -0.001)"/>
    <path id="Path_62" data-name="Path 62" d="M243.263,14.072a1.012,1.012,0,0,0,1.362-.439A12.1,12.1,0,0,0,243.179.386a1.012,1.012,0,1,0-1.559,1.289,10.078,10.078,0,0,1,1.205,11.035,1.011,1.011,0,0,0,.438,1.362Zm0,0" transform="translate(-212.765 -0.001)"/>
  </g>
</svg>
