<svg xmlns="http://www.w3.org/2000/svg" width="51.583" height="48.629" viewBox="0 0 51.583 48.629">
  <g id="tap" transform="matrix(0.574, -0.819, 0.819, 0.574, -0.011, 24.537)">
    <path id="Path_56" data-name="Path 56" d="M.219,19.206a2.191,2.191,0,0,0,.634,2.44C2.189,22.984,4.936,27.81,6.3,31.21a19.68,19.68,0,0,0,4.512,6.1,3.474,3.474,0,0,1,1.037,2.484v.256a2.1,2.1,0,0,0,2.1,2.1h11.2a2.1,2.1,0,0,0,2.1-2.1V37.9a.642.642,0,0,1,.187-.476c2.583-2.362,2.613-6.305,2.613-6.472V19.87a2.874,2.874,0,0,0-2.6-2.911,2.8,2.8,0,0,0-1.6.381V16.253a2.783,2.783,0,0,0-4.229-2.394,2.767,2.767,0,0,0-4.169-2.116V10.584a5.529,5.529,0,0,0,2.8-4.829,5.6,5.6,0,0,0-11.2,0,5.529,5.529,0,0,0,2.8,4.829V21.852a7.743,7.743,0,0,1-.333,2.441.707.707,0,0,1-.5.47.674.674,0,0,1-.63-.165A9.947,9.947,0,0,1,8.93,22.863c-1.215-1.817-4.271-5.21-6.183-5.21A2.742,2.742,0,0,0,.219,19.206ZM10.445,5.755a4.2,4.2,0,0,1,8.4,0,4.157,4.157,0,0,1-1.4,3.134V5.755a2.8,2.8,0,1,0-5.6,0V8.889A4.158,4.158,0,0,1,10.445,5.755ZM7.764,23.64a11.371,11.371,0,0,0,1.654,1.977,2.071,2.071,0,0,0,1.93.5,2.109,2.109,0,0,0,1.491-1.38,9.115,9.115,0,0,0,.407-2.888V5.755a1.4,1.4,0,0,1,2.8,0v14.7a.7.7,0,1,0,1.4,0v-6.3a1.4,1.4,0,0,1,2.8,0v6.3a.7.7,0,1,0,1.4,0v-4.2a1.4,1.4,0,1,1,2.8,0v4.9a.7.7,0,0,0,1.4,0v-1.4a1.388,1.388,0,0,1,.411-.989,1.416,1.416,0,0,1,1.092-.407,1.49,1.49,0,0,1,1.3,1.514V30.95c0,.034-.036,3.5-2.158,5.44a2.042,2.042,0,0,0-.641,1.509v2.15a.7.7,0,0,1-.7.7h-11.2a.7.7,0,0,1-.7-.7v-.256A4.885,4.885,0,0,0,11.783,36.3,18.8,18.8,0,0,1,7.6,30.69c-1.44-3.6-4.29-8.569-5.754-10.033-.333-.333-.445-.641-.331-.915a1.38,1.38,0,0,1,1.236-.689c.951,0,3.53,2.358,5.017,4.588Zm0,0" transform="translate(-0.079 -0.143)"/>
    <path id="Path_57" data-name="Path 57" d="M314.91,304.423a.7.7,0,0,0,.7-.7v-4.2a.7.7,0,0,0-1.4,0v4.2A.7.7,0,0,0,314.91,304.423Zm0,0" transform="translate(-288.447 -274.316)"/>
    <path id="Path_58" data-name="Path 58" d="M306.378,387.065a.7.7,0,0,0,.495-.205,2.841,2.841,0,0,0,.905-1.895.691.691,0,0,0-.683-.69.7.7,0,0,0-.717.674,1.54,1.54,0,0,1-.495.921.7.7,0,0,0,.495,1.195Zm0,0" transform="translate(-280.615 -352.76)"/>
    <path id="Path_59" data-name="Path 59" d="M178.376,462.356h.7a.7.7,0,1,0,0-1.4h-.7a.7.7,0,1,0,0,1.4Zm0,0" transform="translate(-163.11 -423.152)"/>
    <path id="Path_60" data-name="Path 60" d="M221.043,462.356h4.9a.7.7,0,1,0,0-1.4h-4.9a.7.7,0,0,0,0,1.4Zm0,0" transform="translate(-202.279 -423.152)"/>
    <path id="Path_61" data-name="Path 61" d="M78.077,11.589a.7.7,0,0,0,.51-1.179,6.981,6.981,0,0,1-.307-9.25A.7.7,0,1,0,77.2.268a8.382,8.382,0,0,0,.365,11.1.7.7,0,0,0,.51.22Zm0,0" transform="translate(-69.111 -0.001)"/>
    <path id="Path_62" data-name="Path 62" d="M242.68,9.734a.7.7,0,0,0,.942-.3,8.37,8.37,0,0,0-1-9.163.7.7,0,1,0-1.078.892,6.971,6.971,0,0,1,.834,7.633.7.7,0,0,0,.3.942Zm0,0" transform="translate(-221.583 -0.001)"/>
  </g>
</svg>
