<svg xmlns="http://www.w3.org/2000/svg" width="27.372" height="35.738" viewBox="0 0 27.372 35.738">
  <g id="twitter-letter-logo" transform="translate(-10 1.5)">
    <path id="Twitter" d="M31.784,24.552H23.706a4.029,4.029,0,0,1-4.04-4.055V17.622h11.51a3.805,3.805,0,0,0,3.79-3.793,3.812,3.812,0,0,0-3.8-3.795h-11.5V4.094a3.955,3.955,0,0,0-1.2-2.888A3.885,3.885,0,0,0,15.6,0a3.988,3.988,0,0,0-2.912,1.182A3.939,3.939,0,0,0,11.5,4.1V20.5a11.8,11.8,0,0,0,3.578,8.648,11.741,11.741,0,0,0,8.632,3.592h8.077a4.087,4.087,0,0,0,2.885-6.981A3.943,3.943,0,0,0,31.784,24.552Z" transform="translate(0 0)" fill="none" stroke="#075ad0" stroke-width="3"/>
  </g>
</svg>
