<svg xmlns="http://www.w3.org/2000/svg" xmlns:xlink="http://www.w3.org/1999/xlink" width="233.338" height="233.338" viewBox="0 0 233.338 233.338">
  <defs>
    <style>
      .cls-1 {
        fill: none;
      }

      .cls-2, .cls-3 {
        stroke: none;
      }

      .cls-3 {
        fill: #fff;
      }

      .cls-4 {
        filter: url(#Path_64);
      }
    </style>
    <filter id="Path_64" x="0" y="0" width="233.338" height="233.338" filterUnits="userSpaceOnUse">
      <feOffset dy="3" input="SourceAlpha"/>
      <feGaussianBlur stdDeviation="3" result="blur"/>
      <feFlood flood-opacity="0.161"/>
      <feComposite operator="in" in2="blur"/>
      <feComposite in="SourceGraphic"/>
    </filter>
  </defs>
  <g id="Group_100" data-name="Group 100" transform="translate(9 6)">
    <g class="cls-4" transform="matrix(1, 0, 0, 1, -9, -6)">
      <g id="Path_64-2" data-name="Path 64" class="cls-1" transform="translate(9 6)">
        <path class="cls-2" d="M107.669,0A107.669,107.669,0,1,1,0,107.669,107.669,107.669,0,0,1,107.669,0Z"/>
        <path class="cls-3" d="M 107.6690063476563 10 C 53.81411743164063 10 10 53.81411743164063 10 107.6690063476563 C 10 161.5238952636719 53.81411743164063 205.3380126953125 107.6690063476563 205.3380126953125 C 161.5238952636719 205.3380126953125 205.3380126953125 161.5238952636719 205.3380126953125 107.6690063476563 C 205.3380126953125 53.81411743164063 161.5238952636719 10 107.6690063476563 10 M 107.6690063476563 0 C 167.1329345703125 0 215.3380126953125 48.20504760742188 215.3380126953125 107.6690063476563 C 215.3380126953125 167.1329345703125 167.1329345703125 215.3380126953125 107.6690063476563 215.3380126953125 C 48.20504760742188 215.3380126953125 0 167.1329345703125 0 107.6690063476563 C 0 48.20504760742188 48.20504760742188 0 107.6690063476563 0 Z"/>
      </g>
    </g>
    <g id="Polygon_2" data-name="Polygon 2" class="cls-1" transform="translate(152.614 65.383) rotate(90)">
      <path class="cls-2" d="M34.085,15.584a11,11,0,0,1,18.83,0l24,39.728A11,11,0,0,1,67.5,72h-48a11,11,0,0,1-9.415-16.688Z"/>
      <path class="cls-3" d="M 43.5 20.27182769775391 L 42.64408111572266 20.75473022460938 L 18.64166259765625 60.48288726806641 C 18.54361724853516 60.6451301574707 18.33966064453125 60.98272705078125 18.62661743164063 61.49134826660156 C 18.91355895996094 61.9999885559082 19.30799865722656 61.9999885559082 19.49755859375 61.9999885559082 L 67.50241851806641 61.9999885559082 C 67.69197845458984 61.9999885559082 68.08641815185547 61.9999885559082 68.37338256835938 61.49134826660156 C 68.66033935546875 60.98272705078125 68.45638275146484 60.6451301574707 68.35833740234375 60.48288726806641 L 44.35589981079102 20.75471115112305 C 44.26860046386719 20.61021041870117 44.06415939331055 20.27182769775391 43.5 20.27182769775391 M 43.49999618530273 10.27182769775391 C 47.13780975341797 10.27182769775391 50.77561950683594 12.04241180419922 52.91505813598633 15.58357238769531 L 76.91749572753906 55.31172943115234 C 81.34674072265625 62.64286804199219 76.06770324707031 71.99999237060547 67.50241851806641 71.99999237060547 L 19.49755859375 71.99999237060547 C 10.93229675292969 71.99999237060547 5.65325927734375 62.64286804199219 10.08249664306641 55.31172943115234 L 34.08491897583008 15.58357238769531 C 36.22436904907227 12.04241180419922 39.86218643188477 10.27182769775391 43.49999618530273 10.27182769775391 Z"/>
    </g>
  </g>
</svg>
