<svg id="web-design" xmlns="http://www.w3.org/2000/svg" width="71.068" height="71.068" viewBox="0 0 71.068 71.068">
  <g id="Group_58" data-name="Group 58" transform="translate(34.116 58.544)">
    <g id="Group_57" data-name="Group 57" transform="translate(0 0)">
      <rect id="Rectangle_19" data-name="Rectangle 19" width="2.717" height="2.173" fill="#0a0284"/>
    </g>
  </g>
  <g id="Group_60" data-name="Group 60">
    <g id="Group_59" data-name="Group 59">
      <path id="Path_50" data-name="Path 50" d="M69.883,61.592H68.7V18.951a4.738,4.738,0,0,0-4.738-4.738H56.854V4.738A4.738,4.738,0,0,0,52.117,0H18.951a4.738,4.738,0,0,0-4.738,4.738v9.476H7.107a4.738,4.738,0,0,0-4.738,4.738V61.592H1.184A1.185,1.185,0,0,0,0,62.777V66.33a4.738,4.738,0,0,0,4.738,4.738H66.33a4.738,4.738,0,0,0,4.738-4.738V62.777A1.185,1.185,0,0,0,69.883,61.592ZM16.583,4.738a2.369,2.369,0,0,1,2.369-2.369H52.117a2.369,2.369,0,0,1,2.369,2.369V9.476h-37.9Zm0,7.107h37.9v34.35a2.369,2.369,0,0,1-2.369,2.369H18.951a2.369,2.369,0,0,1-2.369-2.369Zm2.369,39.087H52.117a4.738,4.738,0,0,0,4.738-4.738V21.32h4.738V54.485H9.476V21.32h4.738V46.194A4.738,4.738,0,0,0,18.951,50.932ZM4.738,18.951a2.369,2.369,0,0,1,2.369-2.369h7.107v2.369H8.291a1.185,1.185,0,0,0-1.184,1.184V55.67a1.185,1.185,0,0,0,1.184,1.184H62.777a1.185,1.185,0,0,0,1.184-1.184V20.136a1.185,1.185,0,0,0-1.184-1.184H56.854V16.583h7.107a2.369,2.369,0,0,1,2.369,2.369V61.592H46.194a1.185,1.185,0,0,0-.837.346l-2.022,2.023h-15.6l-2.022-2.023a1.185,1.185,0,0,0-.837-.346H4.738ZM68.7,66.33A2.369,2.369,0,0,1,66.33,68.7H4.738A2.369,2.369,0,0,1,2.369,66.33V63.961H24.383l2.022,2.022a1.184,1.184,0,0,0,.837.347H43.825a1.184,1.184,0,0,0,.837-.347l2.022-2.022H68.7Z" fill="#0a0284"/>
    </g>
  </g>
  <g id="Group_62" data-name="Group 62" transform="translate(18.906 37.773)">
    <g id="Group_61" data-name="Group 61" transform="translate(0 0)">
      <rect id="Rectangle_20" data-name="Rectangle 20" width="33.142" height="2.717" fill="#0a0284"/>
    </g>
  </g>
  <g id="Group_64" data-name="Group 64" transform="translate(19.043 42.356)">
    <g id="Group_63" data-name="Group 63" transform="translate(0 0)">
      <rect id="Rectangle_21" data-name="Rectangle 21" width="30.426" height="2.717" fill="#0a0284"/>
    </g>
  </g>
  <g id="Group_66" data-name="Group 66" transform="translate(26.164 33.206)">
    <g id="Group_65" data-name="Group 65" transform="translate(0 0)">
      <rect id="Rectangle_22" data-name="Rectangle 22" width="25.536" height="2.173" fill="#0a0284"/>
    </g>
  </g>
  <g id="Group_68" data-name="Group 68" transform="translate(18.839 4.987)">
    <g id="Group_67" data-name="Group 67" transform="translate(0 0)">
      <rect id="Rectangle_23" data-name="Rectangle 23" width="2.717" height="2.717" fill="#0a0284"/>
    </g>
  </g>
  <g id="Group_70" data-name="Group 70" transform="translate(23.422 4.987)">
    <g id="Group_69" data-name="Group 69" transform="translate(0 0)">
      <rect id="Rectangle_24" data-name="Rectangle 24" width="2.717" height="2.717" fill="#0a0284"/>
    </g>
  </g>
  <g id="Group_72" data-name="Group 72" transform="translate(28.529 4.987)">
    <g id="Group_71" data-name="Group 71" transform="translate(0 0)">
      <rect id="Rectangle_25" data-name="Rectangle 25" width="2.173" height="2.717" fill="#0a0284"/>
    </g>
  </g>
  <g id="Group_74" data-name="Group 74" transform="translate(22.404 33.206)">
    <g id="Group_73" data-name="Group 73" transform="translate(0 0)">
      <rect id="Rectangle_26" data-name="Rectangle 26" width="2.717" height="2.173" fill="#0a0284"/>
    </g>
  </g>
  <g id="Group_76" data-name="Group 76" transform="translate(24.709 17.836)">
    <g id="Group_75" data-name="Group 75">
      <path id="Path_51" data-name="Path 51" d="M175.06,123.617l-1.513-2.017-5.043,3.782a1.261,1.261,0,0,0,0,2.017l5.043,3.782,1.513-2.017-3.7-2.774Z" transform="translate(-167.999 -121.6)" fill="#0a0284"/>
    </g>
  </g>
  <g id="Group_78" data-name="Group 78" transform="translate(39.299 17.836)">
    <g id="Group_77" data-name="Group 77">
      <path id="Path_52" data-name="Path 52" d="M274.008,125.634a1.266,1.266,0,0,0-.252-.252l-5.043-3.782-1.513,2.017,3.7,2.774-3.7,2.774,1.513,2.017,5.043-3.782A1.261,1.261,0,0,0,274.008,125.634Z" transform="translate(-267.2 -121.6)" fill="#0a0284"/>
    </g>
  </g>
  <g id="Group_80" data-name="Group 80" transform="translate(31.842 15.918)">
    <g id="Group_79" data-name="Group 79" transform="translate(0 0)">
      <rect id="Rectangle_27" data-name="Rectangle 27" width="13.578" height="2.522" transform="translate(0 12.606) rotate(-68.191)" fill="#0a0284"/>
    </g>
  </g>
</svg>
